<?xml version="1.0" standalone="no"?>
<!DOCTYPE svg PUBLIC "-//W3C//DTD SVG 20010904//EN"
 "http://www.w3.org/TR/2001/REC-SVG-20010904/DTD/svg10.dtd">
<svg version="1.0" xmlns="http://www.w3.org/2000/svg"
 width="250.000000pt" height="250.000000pt" viewBox="0 0 300.000000 400.000000"
 preserveAspectRatio="xMidYMid meet">

<g transform="translate(-200.000000,500.000000) scale(0.100000,-0.100000)"
fill="#000000" stroke="none">
<path d="M2637 3143 c-4 -3 7 -15 24 -25 17 -11 27 -23 23 -30 -5 -7 -3 -8 7
-3 12 8 12 6 0 -8 -12 -15 -10 -17 21 -17 19 0 39 5 45 11 6 6 28 17 49 24 22
8 31 14 21 15 -10 0 -28 -5 -40 -11 -17 -8 -16 -5 6 13 15 13 27 27 27 31 0
17 -24 4 -55 -30 l-34 -37 -40 37 c-44 40 -45 40 -54 30z"/>
<path d="M2618 3103 c6 -2 18 -2 25 0 6 3 1 5 -13 5 -14 0 -19 -2 -12 -5z"/>
<path d="M2619 3077 c5 -5 19 -7 32 -5 20 3 19 5 -9 9 -20 3 -29 2 -23 -4z"/>
<path d="M2560 3035 c-17 -21 -27 -444 -10 -474 10 -20 19 -21 175 -21 l165 0
0 40 0 39 -117 3 -118 3 -3 47 -3 47 103 3 103 3 3 38 3 37 -100 0 -101 0 0
50 0 50 110 0 110 0 0 40 0 39 -152 3 c-145 3 -153 4 -153 23 0 19 8 20 148
23 197 3 196 22 -2 22 -121 0 -151 -3 -161 -15z"/>
<path d="M2708 3003 c23 -2 61 -2 85 0 23 2 4 4 -43 4 -47 0 -66 -2 -42 -4z"/>
<path d="M1628 2968 c-3 -7 -3 -77 -2 -155 2 -124 5 -147 24 -180 26 -46 69
-78 131 -94 91 -24 194 31 218 116 6 22 11 104 11 183 l0 142 -50 0 -50 0 0
-149 c0 -142 -1 -151 -23 -177 -33 -38 -96 -39 -134 -1 -28 27 -28 29 -31 177
l-3 150 -44 0 c-25 0 -45 -5 -47 -12z"/>
<path d="M2110 2760 l0 -221 48 3 47 3 3 60 c3 49 8 65 30 88 l26 27 23 -27
c12 -16 44 -56 69 -90 l47 -63 60 0 c46 0 57 3 49 13 -34 41 -172 231 -172
237 0 3 30 39 68 80 104 114 103 110 39 110 l-55 0 -89 -96 -88 -97 -5 94 -5
94 -47 3 -48 3 0 -221z"/>
<path d="M2980 2760 l0 -220 45 0 45 0 0 136 c0 78 4 134 9 132 5 -1 36 -37
68 -78 159 -204 145 -190 186 -190 l37 0 0 220 0 220 -45 0 -44 0 -3 -132 -3
-132 -70 85 c-38 46 -87 105 -108 131 -33 43 -42 48 -77 48 l-40 0 0 -220z"/>
<path d="M2867 2413 c-4 -3 -7 -26 -7 -51 0 -38 -2 -43 -17 -36 -67 31 -133
-14 -133 -90 0 -59 34 -96 88 -96 21 0 43 5 49 11 8 8 13 8 17 0 4 -6 18 -11
32 -11 l24 0 0 140 0 140 -23 0 c-13 0 -27 -3 -30 -7z m-7 -153 c16 -29 -8
-74 -41 -78 -56 -7 -81 79 -30 105 28 14 55 4 71 -27z"/>
<path d="M2195 2333 c-11 -3 -26 -10 -32 -15 -9 -7 -13 -7 -13 1 0 6 -11 11
-25 11 -25 0 -25 0 -25 -95 0 -95 0 -95 25 -95 24 0 25 3 25 53 0 59 20 97 51
97 14 0 19 7 19 25 0 14 -1 24 -2 24 -2 -1 -12 -4 -23 -6z"/>
<path d="M2310 2327 c-49 -17 -76 -72 -60 -122 7 -20 24 -43 38 -53 55 -36
166 -8 132 33 -9 11 -16 13 -24 5 -23 -23 -96 -6 -96 22 0 4 34 8 75 8 73 0
75 1 75 25 0 31 -46 83 -80 89 -14 3 -41 0 -60 -7z m68 -39 c25 -25 13 -38
-33 -38 -49 0 -53 4 -28 32 19 21 44 23 61 6z"/>
<path d="M2523 2329 c-35 -10 -38 -16 -24 -37 6 -10 13 -11 34 -1 32 14 77 -1
77 -26 0 -11 -11 -15 -43 -15 -23 0 -53 -7 -65 -16 -43 -30 -19 -98 34 -96 16
1 50 2 77 2 l47 0 0 74 c0 55 -4 79 -17 95 -21 25 -74 34 -120 20z m87 -128
c0 -28 -60 -45 -75 -21 -14 22 4 40 40 40 28 0 35 -4 35 -19z"/>
</g>
</svg>
